<svg width="32" height="32" viewBox="0 0 32 32" fill="none" xmlns="http://www.w3.org/2000/svg">
  <defs>
    <linearGradient id="gradient1" x1="0%" y1="0%" x2="100%" y2="100%">
      <stop offset="0%" style="stop-color:#ec4899;stop-opacity:1" />
      <stop offset="50%" style="stop-color:#8b5cf6;stop-opacity:1" />
      <stop offset="100%" style="stop-color:#3b82f6;stop-opacity:1" />
    </linearGradient>
    <linearGradient id="gradient2" x1="0%" y1="0%" x2="100%" y2="100%">
      <stop offset="0%" style="stop-color:#ffffff;stop-opacity:0.9" />
      <stop offset="100%" style="stop-color:#ffffff;stop-opacity:0.7" />
    </linearGradient>
  </defs>
  
  <!-- Background circle -->
  <circle cx="16" cy="16" r="15" fill="url(#gradient1)" stroke="rgba(255,255,255,0.2)" stroke-width="1"/>
  
  <!-- Inner design - SMM icon -->
  <g transform="translate(8,8)">
    <!-- Chart/growth icon -->
    <path d="M2 12L6 8L10 11L14 4" stroke="url(#gradient2)" stroke-width="2" stroke-linecap="round" stroke-linejoin="round" fill="none"/>
    
    <!-- Dots for chart points -->
    <circle cx="2" cy="12" r="1.5" fill="url(#gradient2)"/>
    <circle cx="6" cy="8" r="1.5" fill="url(#gradient2)"/>
    <circle cx="10" cy="11" r="1.5" fill="url(#gradient2)"/>
    <circle cx="14" cy="4" r="1.5" fill="url(#gradient2)"/>
    
    <!-- Social media element - like heart -->
    <path d="M11 2C10.5 1.5 9.5 1.5 9 2C8.5 1.5 7.5 1.5 7 2C6 3 6 4.5 7 5.5L9 7.5L11 5.5C12 4.5 12 3 11 2Z" 
          fill="url(#gradient2)" opacity="0.8"/>
  </g>
  
  <!-- Glow effect -->
  <circle cx="16" cy="16" r="15" fill="none" stroke="url(#gradient1)" stroke-width="0.5" opacity="0.6"/>
</svg>
